<svg width="16" height="16" viewBox="0 0 16 16" fill="none" xmlns="http://www.w3.org/2000/svg">
<g id="icon">
<path id="vector" d="M0 3.28571V12.7143C0 13.4241 0.597222 14 1.33333 14H2.66667V2H1.33333C0.597222 2 0 2.57589 0 3.28571ZM3.55556 14H12.4444V2H3.55556V14ZM5.33333 7.35714C5.33333 7.23929 5.43333 7.14286 5.55556 7.14286H7.11111V5.64286C7.11111 5.525 7.21111 5.42857 7.33333 5.42857H8.66667C8.78889 5.42857 8.88889 5.525 8.88889 5.64286V7.14286H10.4444C10.5667 7.14286 10.6667 7.23929 10.6667 7.35714V8.64286C10.6667 8.76071 10.5667 8.85714 10.4444 8.85714H8.88889V10.3571C8.88889 10.475 8.78889 10.5714 8.66667 10.5714H7.33333C7.21111 10.5714 7.11111 10.475 7.11111 10.3571V8.85714H5.55556C5.43333 8.85714 5.33333 8.76071 5.33333 8.64286V7.35714ZM14.6667 2H13.3333V14H14.6667C15.4028 14 16 13.4241 16 12.7143V3.28571C16 2.57589 15.4028 2 14.6667 2Z" fill="#EC3A47"/>
</g>
</svg>
