<svg width="16" height="16" viewBox="0 0 16 16" fill="none" xmlns="http://www.w3.org/2000/svg">
<path d="M15.6246 5.5H13.7537L13.2337 4.2C12.6993 2.86344 11.424 2 9.98427 2H6.01552C4.57614 2 3.30052 2.86344 2.76583 4.2L2.24583 5.5H0.375199C0.131137 5.5 -0.0479262 5.72938 0.0114489 5.96594L0.198949 6.71594C0.240512 6.88282 0.390512 7.00001 0.5627 7.00001H1.18989C0.7702 7.36657 0.499887 7.89938 0.499887 8.50001V10C0.499887 10.5038 0.692387 10.9584 0.999888 11.3103V13C0.999888 13.5522 1.4477 14 1.99989 14H2.99989C3.55208 14 3.99989 13.5522 3.99989 13V12H11.9999V13C11.9999 13.5522 12.4477 14 12.9999 14H13.9999C14.5521 14 14.9999 13.5522 14.9999 13V11.3103C15.3074 10.9588 15.4999 10.5041 15.4999 10V8.50001C15.4999 7.89938 15.2296 7.36657 14.8102 7.00001H15.4374C15.6096 7.00001 15.7596 6.88282 15.8012 6.71594L15.9887 5.96594C16.0477 5.72938 15.8687 5.5 15.6246 5.5ZM4.6227 4.94282C4.85052 4.37344 5.40208 4 6.01552 4H9.98427C10.5977 4 11.1493 4.37344 11.3771 4.94282L11.9999 6.5H3.99989L4.6227 4.94282ZM2.99989 9.99376C2.39989 9.99376 1.99989 9.59501 1.99989 8.99688C1.99989 8.39876 2.39989 8.00001 2.99989 8.00001C3.59989 8.00001 4.49989 8.8972 4.49989 9.49532C4.49989 10.0934 3.59989 9.99376 2.99989 9.99376ZM12.9999 9.99376C12.3999 9.99376 11.4999 10.0934 11.4999 9.49532C11.4999 8.8972 12.3999 8.00001 12.9999 8.00001C13.5999 8.00001 13.9999 8.39876 13.9999 8.99688C13.9999 9.59501 13.5999 9.99376 12.9999 9.99376Z" fill="#EC3A47"/>
</svg>
