<svg width="16" height="16" viewBox="0 0 16 16" fill="none" xmlns="http://www.w3.org/2000/svg">
<g id="icon">
<path id="vector" d="M15.9852 12.4404C15.7752 11.9304 15.1902 11.6879 14.6802 11.9004L14.1277 12.1304L13.1602 9.58291C14.3577 8.70791 14.7802 7.07541 14.0227 5.76291L11.8577 2.00041C11.6577 1.65291 11.2302 1.50791 10.8577 1.66041L8.00017 2.84541L5.14267 1.66041C4.77017 1.50541 4.34267 1.65291 4.14267 2.00041L1.97767 5.76291C1.22267 7.07541 1.64267 8.70791 2.84017 9.58041L1.87267 12.1279L1.32017 11.8979C0.81017 11.6854 0.22767 11.9279 0.0151701 12.4379C-0.0273299 12.5404 0.0201701 12.6579 0.12267 12.7004L4.18017 14.3854C4.28267 14.4279 4.39767 14.3804 4.44017 14.2779C4.65017 13.7679 4.41017 13.1829 3.90017 12.9704L3.34767 12.7404L4.33267 10.1504C4.44267 10.1629 4.55267 10.1829 4.66017 10.1829C5.95267 10.1829 7.14517 9.35541 7.49517 8.05041L8.00017 6.16541L8.50517 8.05041C8.85517 9.35541 10.0477 10.1829 11.3402 10.1829C11.4477 10.1829 11.5577 10.1629 11.6677 10.1504L12.6502 12.7404L12.0977 12.9704C11.5877 13.1829 11.3452 13.7679 11.5577 14.2779C11.6002 14.3804 11.7177 14.4279 11.8177 14.3854L15.8777 12.7004C15.9777 12.6579 16.0277 12.5429 15.9852 12.4404ZM6.89767 5.65291L4.09517 4.49041L5.00767 2.90541L7.37017 3.88541L6.89767 5.65291ZM9.10267 5.65291L8.63017 3.88541L10.9927 2.90541L11.9052 4.49041L9.10267 5.65291Z" fill="#EC3A47"/>
</g>
</svg>
