<svg width="16" height="16" viewBox="0 0 16 16" fill="none" xmlns="http://www.w3.org/2000/svg">
<g id="icon">
<path id="vector" d="M3.8025 7.505C3.715 7.2025 3.6075 6.675 3.6075 6.675H3.595C3.595 6.675 3.4875 7.2025 3.4 7.505L3.1225 8.4425H4.075L3.8025 7.505ZM15.4 4H8.4V12H15.4C15.7325 12 16 11.7325 16 11.4V4.6C16 4.2675 15.7325 4 15.4 4ZM14.8 7C14.8 7.165 14.665 7.3 14.5 7.3H14.215C14.0425 7.89 13.6725 8.485 13.1475 9.0475C13.3575 9.2075 13.575 9.36 13.8 9.4975C13.9375 9.5825 13.9825 9.76 13.9025 9.9025L13.705 10.25C13.62 10.3975 13.4325 10.445 13.2875 10.3575C12.9725 10.1625 12.675 9.955 12.4025 9.735C12.13 9.9525 11.835 10.1625 11.5175 10.3575C11.3725 10.445 11.185 10.3975 11.1 10.25L10.9025 9.9025C10.8225 9.7625 10.8675 9.5825 11.0075 9.4975C11.24 9.355 11.4575 9.205 11.66 9.0475C11.4625 8.8375 11.2875 8.6225 11.135 8.405C11.035 8.2625 11.08 8.065 11.2275 7.9775L11.39 7.88L11.5725 7.7725C11.7075 7.6925 11.8825 7.73 11.9725 7.8575C12.0975 8.0325 12.2425 8.2075 12.4075 8.38C12.745 8.025 13.0025 7.6575 13.1575 7.3H10.3C10.135 7.3 10 7.165 10 7V6.6C10 6.435 10.135 6.3 10.3 6.3H11.9V5.9C11.9 5.735 12.035 5.6 12.2 5.6H12.6C12.765 5.6 12.9 5.735 12.9 5.9V6.3H14.5C14.665 6.3 14.8 6.435 14.8 6.6V7ZM0 4.6V11.4C0 11.7325 0.2675 12 0.6 12H7.6V4H0.6C0.2675 4 0 4.2675 0 4.6ZM1.4725 10.0025L2.91 5.775C2.9525 5.6525 3.065 5.5725 3.195 5.5725H4.0075C4.135 5.5725 4.25 5.655 4.2925 5.775L5.73 10.0025C5.795 10.1975 5.6525 10.4 5.445 10.4H4.8725C4.8078 10.4 4.74485 10.379 4.69304 10.3403C4.64123 10.3015 4.60333 10.247 4.585 10.185L4.35 9.3875H2.845L2.6175 10.1825C2.58 10.31 2.4625 10.4 2.33 10.4H1.7575C1.5525 10.4 1.4075 10.1975 1.4725 10.0025Z" fill="#EC3A47"/>
</g>
</svg>
