<svg width="16" height="16" viewBox="0 0 16 16" fill="none" xmlns="http://www.w3.org/2000/svg">
<g id="icon">
<path id="vector" d="M12.5 5H3.5C2.67156 5 2 5.67156 2 6.5V13.5C2 14.3284 2.67156 15 3.5 15H4V15.5C4 15.7762 4.22375 16 4.5 16H5.5C5.77625 16 6 15.7762 6 15.5V15H10V15.5C10 15.7762 10.2238 16 10.5 16H11.5C11.7762 16 12 15.7762 12 15.5V15H12.5C13.3284 15 14 14.3284 14 13.5V6.5C14 5.67156 13.3284 5 12.5 5ZM12 11.75C12 11.8881 11.8881 12 11.75 12H4.25C4.11188 12 4 11.8881 4 11.75V11.25C4 11.1119 4.11188 11 4.25 11H11.75C11.8881 11 12 11.1119 12 11.25V11.75ZM12 8.75C12 8.88813 11.8881 9 11.75 9H4.25C4.11188 9 4 8.88813 4 8.75V8.25C4 8.11187 4.11188 8 4.25 8H11.75C11.8881 8 12 8.11187 12 8.25V8.75ZM6.5 1.5H9.5V4H11V1.5C11 0.671562 10.3284 0 9.5 0H6.5C5.67156 0 5 0.671562 5 1.5V4H6.5V1.5Z" fill="#EC3A47"/>
</g>
</svg>
